<?xml version="1.0" encoding="iso-8859-1"?>
<!-- Generator: Adobe Illustrator 19.0.0, SVG Export Plug-In . SVG Version: 6.00 Build 0)  -->
<svg version="1.1" id="Layer_1" xmlns="http://www.w3.org/2000/svg" xmlns:xlink="http://www.w3.org/1999/xlink" x="0px" y="0px"
	 viewBox="0 0 340.856 340.856" style="enable-background:new 0 0 340.856 340.856;" xml:space="preserve">
<g>
	<path style="fill:#FF7876;" d="M171.9,241.571l0.011-0.004c-23.918-25.017-5.88-66.318,28.274-66.416
		c21.748-0.062,39.397,17.549,39.397,39.282c0-32.639,37.567-50.94,63.265-31.033l7.928-8.24l-0.023-0.009
		c15.06-15.752,23.882-37.518,22.434-61.346c-2.587-42.567-38.421-76.259-81.067-76.381c-45.098-0.129-81.698,36.391-81.698,81.459
		c0-45.068-36.6-81.588-81.698-81.459c-42.646,0.122-78.48,33.814-81.067,76.381c-1.448,23.829,7.374,45.594,22.434,61.346
		l-0.022,0.009l111.643,116.045c15.673,16.292,41.747,16.292,57.421,0l10.259-10.664L171.9,241.571z"/>
	<g>
		<path style="fill:#FFDB77;" d="M278.979,175.15c-21.748-0.062-39.397,17.549-39.397,39.282c0-21.733-17.649-39.344-39.397-39.282
			c-34.201,0.098-52.162,41.431-28.274,66.416l-0.011,0.004l53.837,55.96c7.558,7.856,20.132,7.856,27.69,0l53.837-55.96
			l-0.011-0.004C331.171,216.549,313.133,175.248,278.979,175.15z"/>
		<g>
			<path style="fill:#414042;" d="M88.81,59.922c-0.007,0-0.015,0-0.022,0c-30.742,0.089-56.803,24.462-58.673,55.247
				c-0.251,4.135,2.897,7.69,7.032,7.941c4.238,0.241,7.695-2.981,7.941-7.031c1.387-22.824,20.859-41.093,43.743-41.157
				c4.142-0.012,7.49-3.379,7.479-7.521C96.298,63.266,92.942,59.922,88.81,59.922z"/>
			<path style="fill:#414042;" d="M313.555,183.087c18.996-19.747,28.786-42.274,27.117-69.737
				c-2.835-46.647-41.723-83.293-88.531-83.427c-0.089,0-0.173,0-0.262,0c-37.208,0-68.024,22.605-81.458,53.087
				c-13.487-30.606-44.367-53.087-81.458-53.087c-0.087,0-0.174,0-0.262,0C41.893,30.056,3.005,66.702,0.17,113.349
				c-1.54,25.342,7.415,49.189,24.493,67.01l111.643,116.045c9.008,9.362,21.124,14.519,34.116,14.519
				c22.158,0,33.393-13.77,38.968-19.565l10.942,11.373c10.525,10.939,27.982,10.931,38.499,0
				c0.24-0.25,53.928-56.042,54.151-56.307C330.009,228.282,329.578,200.777,313.555,183.087z M170.422,295.922
				c-8.875,0-17.152-3.522-23.306-9.919C-2.016,130.992,54.495,189.745,35.512,169.967c-14.403-15.064-21.637-34.849-20.369-55.708
				c2.356-38.77,34.686-69.226,73.602-69.337c0.074,0,0.144,0,0.218,0c40.876,0,73.959,33.079,73.959,73.96
				c0,4.143,3.358,7.5,7.5,7.5c4.143,0,7.5-3.357,7.5-7.5c0-40.879,33.079-73.96,73.959-73.96c0.072,0,0.146,0,0.218,0
				c38.916,0.111,71.245,30.567,73.602,69.337c1.268,20.859-5.966,40.643-20.368,55.708c0,0,0.123-0.097-3.541,3.712
				c-21.415-12.088-48.623-5.563-62.208,15.316c-8.409-12.924-22.838-21.346-39.283-21.346c-0.045,0-0.091,0-0.136,0
				c-40.517,0.117-62.071,48.846-33.983,78.773c0.101,0.118,0.206,0.234,0.314,0.348l32.489,33.769
				C193.365,286.38,185.947,295.922,170.422,295.922z M301.574,236.668l-53.551,55.662c-4.618,4.798-12.268,4.793-16.882,0
				c-9.503-9.878-18.527-19.258-53.55-55.661c-0.084-0.097-0.171-0.192-0.26-0.285c-19.257-20.143-4.948-53.652,22.875-53.733
				c0.031,0,0.061,0,0.092,0c17.57,0,31.784,14.217,31.784,31.782c0,4.143,3.357,7.5,7.5,7.5s7.5-3.357,7.5-7.5
				c0-17.376,13.988-31.782,31.874-31.782C304.763,182.725,321.996,213.158,301.574,236.668z"/>
		</g>
	</g>
</g>
<g>
</g>
<g>
</g>
<g>
</g>
<g>
</g>
<g>
</g>
<g>
</g>
<g>
</g>
<g>
</g>
<g>
</g>
<g>
</g>
<g>
</g>
<g>
</g>
<g>
</g>
<g>
</g>
<g>
</g>
</svg>
