<?xml version="1.0" encoding="iso-8859-1"?>
<!-- Generator: Adobe Illustrator 16.0.0, SVG Export Plug-In . SVG Version: 6.00 Build 0)  -->
<!DOCTYPE svg PUBLIC "-//W3C//DTD SVG 1.1//EN" "http://www.w3.org/Graphics/SVG/1.1/DTD/svg11.dtd">
<svg version="1.1" id="Capa_1" xmlns="http://www.w3.org/2000/svg" xmlns:xlink="http://www.w3.org/1999/xlink" x="0px" y="0px"
	 width="385.664px" height="385.664px" viewBox="0 0 385.664 385.664" style="enable-background:new 0 0 385.664 385.664;"
	 xml:space="preserve">
<g>
	<g>
		<path d="M383.474,134.394l-74-34c-4-2-5.506,0.934-6,2l-71.121,151.974c-0.498,1.065-0.689,2.877-0.428,4.022l15.379,67.14
			c0.264,1.146,1.334,1.646,2.379,1.108l61.287-31.432c1.049-0.537,2.311-1.848,2.807-2.914l70.697-151.899
			C384.97,139.328,386.474,136.394,383.474,134.394z M291.158,292.252c-1.025,0.574-2.729,1.473-3.775,2.01
			c0,0-16.982,8.709-23.275,11.937c-3.156,1.618-9.541-0.941-10.332-4.399c-1.605-7.011-5.945-25.959-5.945-25.959
			c-0.264-1.146-0.654-3.031-0.891-4.183c-0.465-2.263,0.535-4.263,3.471-3.632c1.148,0.248,2.855,1.207,3.922,1.703l33.543,15.623
			c1.064,0.498,2.836,1.272,3.826,1.906C293.474,288.395,294.474,290.395,291.158,292.252z"/>
		<path d="M350.474,256.395c-3.021,6.59-6.773,14.531-10.982,23.85c-1.188,2.632-2.568,4.463-2.568,11.264
			c0,17.719,0,70.871,0,70.871c0,3.273-2.766,6.041-6.043,6.041H23.658c-3.273,0-6.041-2.768-6.041-6.041V23.282
			c0-3.33,2.709-6.041,6.041-6.041H330.88c3.334,0,6.043,2.711,6.043,6.041c0,0,0,40.587,0,53.477c0,3.636,1.553,5.636,3.35,6.403
			c2.52,1.074,7.615,3.073,10.164,4.07c1.494,0.584,3.729-0.837,3.729-5.223c0-14.682,0-58.726,0-58.726
			C354.166,10.445,343.722,0,330.88,0H23.658C10.82,0,0.373,10.445,0.373,23.283v339.098c0,12.84,10.447,23.283,23.285,23.283
			H330.88c12.842,0,23.285-10.443,23.285-23.283c0,0,0-78.154,0-104.205C354.166,253.395,351.21,254.789,350.474,256.395z"/>
		<path d="M269.505,120.499v-8.739c0-2.339-1.912-4.252-4.252-4.252H75.557c-2.339,0-4.252,1.913-4.252,4.252v8.739
			c0,2.339,1.913,4.252,4.252,4.252h189.697C267.593,124.751,269.505,122.838,269.505,120.499z"/>
		<path d="M232.738,197.025v-8.739c0-2.338-1.912-4.252-4.252-4.252H75.557c-2.339,0-4.252,1.914-4.252,4.252v8.739
			c0,2.338,1.913,4.252,4.252,4.252h152.929C230.826,201.277,232.738,199.363,232.738,197.025z"/>
		<path d="M91.901,307.545c-1.904,0-3.461,1.559-3.461,3.461v10.321c0,1.903,1.557,3.461,3.461,3.461h131.032
			c1.903,0,3.461-1.558,3.461-3.461v-10.321c0-1.902-1.558-3.461-3.461-3.461H91.901z"/>
	</g>
</g>
<g>
</g>
<g>
</g>
<g>
</g>
<g>
</g>
<g>
</g>
<g>
</g>
<g>
</g>
<g>
</g>
<g>
</g>
<g>
</g>
<g>
</g>
<g>
</g>
<g>
</g>
<g>
</g>
<g>
</g>
</svg>
